<?xml version="1.0" encoding="utf-8"?>
<!-- Generator: Adobe Illustrator 16.0.4, SVG Export Plug-In . SVG Version: 6.00 Build 0)  -->
<svg version="1.2" baseProfile="tiny" id="Layer_1" xmlns="http://www.w3.org/2000/svg" xmlns:xlink="http://www.w3.org/1999/xlink"
	 x="0px" y="0px" width="275px" height="44px" viewBox="0 0 275 44" xml:space="preserve">
<g id="Paths">
	<g>
		<path fill="#FFFFFF" d="M0.71,40.105c0.609,0,1.422-0.09,2.438-0.269c1.016-0.178,1.557-0.401,1.625-0.673
			c0.203-0.645,0.305-2.1,0.305-4.367V9.637c0-2.268-0.102-3.715-0.305-4.342c-0.068-0.288-0.61-0.521-1.626-0.698
			C2.131,4.42,1.319,4.33,0.71,4.33C0.574,4.169,0.507,3.873,0.507,3.443c0-0.018,0-0.045,0-0.081c0-0.347,0.067-0.591,0.203-0.733
			c0.406,0.016,1.138,0.052,2.196,0.107c1.058,0.055,1.942,0.098,2.653,0.13C6.27,2.898,6.972,2.913,7.666,2.913
			c1.777,0,4.828-0.064,9.153-0.193c4.325-0.128,7.596-0.193,9.813-0.193c0.169,1.123,0.474,2.61,0.914,4.461
			c0.44,1.851,0.702,3.022,0.787,3.514c-0.187,0.219-0.533,0.328-1.041,0.328s-0.787-0.147-0.838-0.443
			c-0.305-1.163-0.686-2.13-1.143-2.903c-0.457-0.772-0.99-1.354-1.6-1.744c-0.609-0.391-1.228-0.66-1.854-0.808
			c-0.626-0.147-1.371-0.221-2.234-0.221H14.57c-0.271,0-0.584,0.009-0.939,0.026c-0.355,0.018-0.783,0.047-1.282,0.09
			c-0.5,0.043-0.923,0.112-1.27,0.207c-0.347,0.094-0.538,0.21-0.571,0.348c-0.203,0.636-0.305,2.055-0.305,4.255v11.167
			c0,0.241,0.846,0.361,2.539,0.361h3.123c0.728,0,1.32,0,1.777,0s0.91-0.035,1.358-0.104s0.787-0.125,1.016-0.168
			s0.465-0.156,0.711-0.338c0.245-0.182,0.419-0.329,0.521-0.441c0.102-0.112,0.22-0.346,0.355-0.7
			c0.135-0.355,0.237-0.649,0.305-0.882c0.067-0.233,0.169-0.627,0.305-1.181c0.051-0.225,0.093-0.398,0.127-0.519
			c0.051-0.276,0.347-0.415,0.889-0.415c0.457,0,0.787,0.113,0.99,0.338v11.074c-0.152,0.229-0.466,0.344-0.939,0.344
			c-0.508,0-0.821-0.155-0.939-0.467c-0.288-1.106-0.529-1.937-0.724-2.488c-0.195-0.553-0.347-0.903-0.457-1.05
			c-0.11-0.146-0.267-0.29-0.47-0.428c-0.491-0.329-2.573-0.493-6.246-0.493c-2.827,0-4.24,0.177-4.24,0.532v11.16
			c0,0.373,0,0.705,0,1s0.013,0.695,0.038,1.203c0.025,0.506,0.063,0.924,0.114,1.252c0.051,0.33,0.118,0.526,0.203,0.596
			c0.355,0.271,0.791,0.435,1.308,0.494c0.516,0.059,1.477,0.08,2.882,0.062h2.818c1.422,0,2.81-0.139,4.164-0.417
			c1.354-0.277,2.438-0.663,3.25-1.15c0.372-0.203,0.719-0.474,1.041-0.812c0.321-0.337,0.592-0.67,0.812-1
			c0.22-0.329,0.453-0.755,0.698-1.276c0.245-0.523,0.44-0.968,0.584-1.33c0.144-0.362,0.334-0.865,0.571-1.506
			c0.067-0.236,0.347-0.354,0.838-0.354c0.186,0,0.385,0.017,0.597,0.051c0.211,0.034,0.394,0.08,0.546,0.142
			c0.152,0.059,0.262,0.112,0.33,0.164c-0.187,0.506-0.482,1.319-0.889,2.44c-0.406,1.122-0.736,2.028-0.99,2.721
			s-0.512,1.488-0.774,2.39c-0.263,0.898-0.436,1.649-0.521,2.25c-2.031,0-5.205-0.037-9.521-0.113
			c-4.316-0.076-7.846-0.114-10.588-0.114c-0.948,0-2.171,0.029-3.669,0.089c-1.498,0.059-2.611,0.09-3.339,0.09
			c-0.136-0.137-0.203-0.396-0.203-0.787C0.507,40.58,0.574,40.275,0.71,40.105z"/>
		<path fill="#FFFFFF" d="M34.81,35.301c0-1.126,0.316-2.133,0.949-3.021c0.632-0.887,1.321-1.467,2.066-1.739
			c0.641-0.224,1.568-0.542,2.782-0.96c1.213-0.418,2.262-0.777,3.146-1.076c0.884-0.299,1.76-0.613,2.63-0.945
			c0.869-0.334,1.506-0.586,1.912-0.757c0.151-0.067,0.27-0.128,0.354-0.18s0.156-0.132,0.215-0.243
			c0.059-0.109,0.097-0.248,0.114-0.41c0.017-0.16,0.025-0.38,0.025-0.652v-1.613c0-0.889-0.219-1.767-0.657-2.638
			s-1.047-1.596-1.83-2.177c-0.782-0.58-1.636-0.871-2.562-0.871c-0.977,0-1.7,0.303-2.171,0.909
			c-0.471,0.606-0.816,1.524-1.035,2.753c-0.185,0.99-0.505,1.715-0.959,2.176c-0.455,0.461-1.051,0.691-1.792,0.691
			c-0.589,0-1.068-0.256-1.438-0.768c-0.371-0.512-0.556-1.094-0.556-1.742c0-0.083,0.017-0.211,0.051-0.384
			c0.034-0.174,0.084-0.36,0.152-0.559c0.067-0.198,0.135-0.338,0.203-0.421c0.508-0.463,1.13-0.947,1.866-1.451
			c0.736-0.504,1.583-1.013,2.539-1.525c0.956-0.513,1.993-0.935,3.11-1.266c1.117-0.331,2.184-0.496,3.199-0.496
			c1.709,0,3.208,0.775,4.494,2.324c1.286,1.549,1.93,3.424,1.93,5.622V36.12c0,1.86,0.605,2.792,1.816,2.792
			c0.168,0,0.336-0.018,0.504-0.051c0.168-0.034,0.311-0.072,0.429-0.115c0.117-0.043,0.239-0.1,0.365-0.167
			c0.126-0.068,0.223-0.127,0.29-0.179c0.067-0.053,0.139-0.104,0.215-0.154c0.075-0.051,0.113-0.085,0.113-0.104
			c0.169,0,0.254,0.162,0.254,0.485c0,0.407-0.102,0.78-0.304,1.12c-0.456,0.404-1.165,0.88-2.127,1.422s-1.721,0.812-2.278,0.812
			c-0.827,0-1.593-0.397-2.298-1.194s-1.153-1.679-1.343-2.646c-0.574,0.578-1.701,1.383-3.382,2.416
			c-1.681,1.033-2.968,1.551-3.863,1.551c-2.017,0-3.709-0.654-5.078-1.963C35.494,38.838,34.81,37.223,34.81,35.301z
			 M39.938,34.764c0,0.717,0.173,1.396,0.519,2.036c0.346,0.642,0.823,1.153,1.431,1.537c0.607,0.384,1.274,0.576,2,0.576
			c0.49,0,1.042-0.099,1.659-0.294c0.616-0.196,1.173-0.428,1.671-0.691c0.498-0.265,0.92-0.533,1.266-0.807
			c0.346-0.273,0.52-0.486,0.52-0.641v-8.066c-3.039,0.904-4.861,1.477-5.469,1.716c-1.115,0.427-1.993,1.033-2.634,1.818
			C40.259,32.732,39.938,33.671,39.938,34.764z"/>
		<path fill="#FFFFFF" d="M59.87,19.031c0-0.051,0-0.11,0-0.178c0-0.305,0.042-0.524,0.127-0.66c3.352-0.474,6.161-1.303,8.43-2.488
			c0.135,0,0.275,0.119,0.419,0.355c0.144,0.237,0.216,0.432,0.216,0.584c-0.034,0.237-0.11,1.126-0.229,2.666
			c-0.119,1.541-0.178,2.463-0.178,2.768c0,0.102,0.029,0.157,0.089,0.165c0.059,0.009,0.105-0.013,0.14-0.063
			c0.305-0.643,0.711-1.324,1.219-2.044c0.508-0.719,1.07-1.4,1.688-2.044c0.618-0.643,1.291-1.172,2.019-1.587
			s1.405-0.622,2.031-0.622c0.762,0,1.485,0.165,2.171,0.495s1.155,0.732,1.409,1.206c0.169,0.474,0.254,1.007,0.254,1.6
			c0,0.965-0.225,1.718-0.673,2.26c-0.449,0.542-0.876,0.812-1.282,0.812c-0.187,0-0.385-0.042-0.597-0.127
			c-0.212-0.084-0.39-0.178-0.533-0.279c-0.144-0.102-0.33-0.229-0.559-0.381c-0.229-0.152-0.394-0.262-0.495-0.33
			c-0.694-0.474-1.414-0.711-2.158-0.711c-0.609,0-1.215,0.212-1.815,0.635c-0.601,0.423-1.104,0.927-1.511,1.511
			c-0.407,0.584-0.741,1.168-1.003,1.752c-0.263,0.584-0.394,1.054-0.394,1.408v9.063c0,2.271,0.102,3.726,0.305,4.367
			c0.067,0.271,0.757,0.495,2.069,0.673c1.312,0.18,2.306,0.268,2.983,0.268c0.118,0.151,0.182,0.437,0.19,0.852
			c0.008,0.415-0.055,0.697-0.19,0.852c-4.029-0.203-6.466-0.306-7.312-0.306c-0.677,0-1.358,0.017-2.044,0.052
			c-0.686,0.033-1.49,0.079-2.412,0.139c-0.923,0.061-1.629,0.099-2.12,0.115c-0.152-0.151-0.225-0.437-0.216-0.852
			c0.008-0.415,0.08-0.698,0.216-0.852c0.559,0,1.295-0.088,2.209-0.268c0.914-0.178,1.413-0.4,1.498-0.673
			c0.186-0.644,0.279-2.101,0.279-4.367V23.83c0-1.557-0.093-2.573-0.279-3.047c-0.136-0.305-0.517-0.546-1.143-0.724
			c-0.626-0.178-1.151-0.279-1.574-0.305c-0.423-0.025-0.796-0.038-1.117-0.038C59.929,19.666,59.887,19.438,59.87,19.031z"/>
		<path fill="#FFFFFF" d="M81.731,18.066c0-0.102,0.218-0.402,0.655-0.901c0.438-0.499,0.731-0.825,0.883-0.978h2.169V12.48
			c0.306-0.372,0.757-0.88,1.353-1.523s1.111-1.197,1.545-1.663c0.434-0.465,0.668-0.724,0.702-0.774
			c0.102-0.102,0.23-0.169,0.383-0.203c0.102-0.034,0.187-0.042,0.255-0.025c0.051,0.017,0.093,0.025,0.127,0.025
			c0.102,0.034,0.162,0.085,0.179,0.152v7.719h7.567c0.084,0,0.147,0.013,0.189,0.038s0.072,0.076,0.089,0.152
			c0.017,0.076,0.025,0.14,0.025,0.19c0,0.05,0,0.136,0,0.254c0,0.626-0.27,1.219-0.81,1.777H89.98v15.438
			c0,1.574,0.325,2.771,0.975,3.593c0.649,0.821,1.615,1.231,2.898,1.231c0.54,0,1.105-0.104,1.695-0.305
			c0.59-0.203,1.038-0.391,1.341-0.561c0.304-0.169,0.565-0.33,0.785-0.48c0.118,0.051,0.177,0.187,0.177,0.404
			c0,0.104-0.017,0.221-0.051,0.354c-0.034,0.138-0.068,0.25-0.102,0.345c-0.034,0.093-0.06,0.155-0.076,0.188
			c-0.271,0.307-0.58,0.609-0.927,0.914c-0.347,0.305-0.787,0.647-1.32,1.028s-1.134,0.69-1.803,0.927
			c-0.669,0.237-1.342,0.355-2.019,0.355c-0.644,0-1.244-0.055-1.803-0.165s-1.109-0.313-1.65-0.609
			c-0.542-0.296-1.007-0.677-1.396-1.144c-0.39-0.465-0.698-1.078-0.927-1.84c-0.229-0.763-0.343-1.625-0.343-2.59V18.6H82.03
			c-0.084,0-0.156-0.063-0.215-0.19C81.761,18.282,81.731,18.168,81.731,18.066z"/>
		<path fill="#FFFFFF" d="M100.089,40.105c0.559,0,1.295-0.09,2.209-0.269c0.914-0.178,1.413-0.401,1.498-0.673
			c0.186-0.645,0.279-2.1,0.279-4.367V8.748c0-1.557-0.093-2.573-0.279-3.047c-0.305-0.711-1.507-1.066-3.605-1.066
			c-0.017,0-0.034-0.123-0.051-0.368s-0.021-0.495-0.013-0.749s0.055-0.389,0.14-0.406c2.691-0.271,5.476-1.058,8.354-2.361
			c0.152,0,0.3,0.106,0.444,0.317c0.144,0.212,0.216,0.419,0.216,0.622c-0.44,1.27-0.66,2.979-0.66,5.129v13.305
			c0,0.085,0.059,0.127,0.178,0.127c0.034,0,0.093-0.042,0.178-0.127c0.321-0.355,0.774-0.762,1.358-1.219
			c0.584-0.457,1.244-0.922,1.98-1.396c0.736-0.474,1.523-0.872,2.361-1.193c0.838-0.321,1.587-0.482,2.247-0.482
			c0.914,0,1.727,0.085,2.438,0.254s1.333,0.411,1.866,0.724c0.533,0.313,0.99,0.732,1.371,1.257
			c0.381,0.525,0.694,1.104,0.939,1.739c0.245,0.635,0.444,1.405,0.597,2.311c0.152,0.906,0.258,1.845,0.317,2.818
			c0.059,0.974,0.089,2.104,0.089,3.39v6.475c0,2.269,0.093,3.724,0.279,4.367c0.051,0.187,0.347,0.354,0.889,0.508
			c0.542,0.152,1.075,0.263,1.6,0.33c0.524,0.068,0.931,0.103,1.219,0.103c0.152,0.168,0.229,0.457,0.229,0.863
			c0,0.018,0,0.033,0,0.051c0,0.373-0.076,0.636-0.229,0.787c-0.542-0.035-1.231-0.076-2.069-0.127
			c-0.838-0.052-1.583-0.094-2.234-0.127c-0.652-0.035-1.316-0.052-1.993-0.052c-0.677,0-1.337,0.017-1.98,0.052
			c-0.644,0.033-1.38,0.075-2.209,0.127c-0.83,0.051-1.515,0.092-2.057,0.127c-0.136-0.151-0.199-0.437-0.19-0.852
			c0.008-0.415,0.072-0.698,0.19-0.852c0.575,0,1.32-0.088,2.234-0.268c0.914-0.178,1.405-0.4,1.473-0.673
			c0.203-0.644,0.305-2.101,0.305-4.367v-5.89c0-1.896-0.085-3.432-0.254-4.608c-0.169-1.176-0.474-2.158-0.914-2.945
			s-1.028-1.337-1.765-1.65c-0.736-0.313-1.68-0.47-2.831-0.47c-0.677,0-1.473,0.237-2.387,0.711
			c-0.914,0.474-1.68,0.969-2.298,1.485c-0.618,0.517-0.927,0.868-0.927,1.054v12.314c0,2.27,0.102,3.725,0.305,4.367
			c0.034,0.137,0.211,0.271,0.533,0.406c0.321,0.136,0.694,0.236,1.117,0.305c0.423,0.068,0.821,0.123,1.193,0.165
			s0.66,0.063,0.863,0.063c0.118,0.15,0.182,0.436,0.19,0.851c0.008,0.415-0.055,0.698-0.19,0.851
			c-0.542-0.033-1.236-0.076-2.082-0.127c-0.847-0.051-1.591-0.093-2.234-0.127c-0.644-0.033-1.308-0.051-1.993-0.051
			c-0.685,0-1.346,0.018-1.98,0.051c-0.635,0.034-1.367,0.076-2.196,0.127c-0.83,0.051-1.515,0.094-2.057,0.127
			c-0.152-0.15-0.229-0.414-0.229-0.787C99.86,40.58,99.937,40.275,100.089,40.105z"/>
	</g>
	<g>
		<path fill="#FFFFFF" d="M174.055,29.087c0-1.879,0.322-3.639,0.967-5.28c0.646-1.643,1.523-3.052,2.638-4.229
			c1.11-1.177,2.448-2.104,4.011-2.781c1.562-0.677,3.219-1.016,4.966-1.016c2.548,0,4.788,0.559,6.726,1.676
			c1.935,1.117,3.408,2.64,4.418,4.57c1.01,1.93,1.516,4.122,1.516,6.577c0,1.879-0.322,3.647-0.968,5.308
			c-0.646,1.657-1.521,3.085-2.623,4.278c-1.104,1.192-2.433,2.134-3.986,2.817c-1.553,0.687-3.204,1.028-4.952,1.028
			c-1.918,0-3.677-0.33-5.271-0.99c-1.597-0.66-2.935-1.564-4.013-2.716c-1.078-1.152-1.918-2.522-2.521-4.113
			C174.355,32.625,174.055,30.915,174.055,29.087z M179.184,27.889c0,1.174,0.108,2.338,0.328,3.494
			c0.221,1.157,0.559,2.262,1.014,3.316c0.457,1.054,1.007,1.984,1.647,2.793c0.642,0.808,1.411,1.453,2.308,1.938
			s1.852,0.729,2.865,0.729c0.812,0,1.56-0.137,2.242-0.408c0.686-0.271,1.271-0.646,1.762-1.123
			c0.491-0.477,0.916-1.033,1.279-1.67c0.364-0.639,0.655-1.343,0.875-2.117c0.221-0.771,0.385-1.562,0.494-2.372
			c0.109-0.808,0.165-1.636,0.165-2.485c0-1.463-0.183-2.916-0.545-4.361c-0.363-1.445-0.884-2.764-1.56-3.954
			c-0.678-1.19-1.543-2.155-2.6-2.895c-1.057-0.74-2.209-1.11-3.46-1.11c-0.979,0-1.858,0.196-2.638,0.587
			c-0.775,0.391-1.424,0.91-1.938,1.556c-0.516,0.646-0.945,1.411-1.292,2.295s-0.592,1.806-0.733,2.768
			C179.255,25.827,179.184,26.833,179.184,27.889z"/>
		<path fill="#FFFFFF" d="M203.48,19.031c0-0.051,0-0.11,0-0.178c0-0.305,0.043-0.524,0.127-0.66
			c3.353-0.474,6.162-1.303,8.431-2.488c0.136,0,0.274,0.119,0.419,0.355c0.145,0.237,0.216,0.432,0.216,0.584
			c-0.034,0.237-0.11,1.126-0.229,2.666c-0.116,1.541-0.178,2.463-0.178,2.768c0,0.102,0.029,0.157,0.09,0.165
			c0.061,0.009,0.104-0.013,0.141-0.063c0.305-0.643,0.711-1.324,1.219-2.044c0.51-0.719,1.07-1.4,1.688-2.044
			c0.617-0.643,1.291-1.172,2.02-1.587s1.405-0.622,2.031-0.622c0.762,0,1.484,0.165,2.171,0.495s1.153,0.732,1.409,1.206
			c0.169,0.474,0.254,1.007,0.254,1.6c0,0.965-0.227,1.718-0.674,2.26s-0.877,0.812-1.281,0.812c-0.188,0-0.387-0.042-0.598-0.127
			c-0.213-0.084-0.391-0.178-0.532-0.279s-0.33-0.229-0.56-0.381c-0.229-0.152-0.395-0.262-0.496-0.33
			c-0.692-0.474-1.412-0.711-2.158-0.711c-0.607,0-1.215,0.212-1.813,0.635c-0.601,0.423-1.104,0.927-1.511,1.511
			c-0.407,0.584-0.74,1.168-1.003,1.752c-0.265,0.584-0.396,1.054-0.396,1.408v9.063c0,2.271,0.104,3.726,0.305,4.367
			c0.068,0.271,0.76,0.495,2.07,0.673c1.312,0.18,2.307,0.268,2.982,0.268c0.118,0.151,0.182,0.437,0.189,0.852
			c0.01,0.415-0.056,0.697-0.189,0.852c-4.027-0.203-6.467-0.306-7.312-0.306c-0.677,0-1.356,0.017-2.043,0.052
			c-0.687,0.033-1.49,0.079-2.412,0.139c-0.924,0.061-1.629,0.099-2.121,0.115c-0.15-0.151-0.225-0.437-0.215-0.852
			c0.008-0.415,0.08-0.698,0.215-0.852c0.561,0,1.295-0.088,2.209-0.268c0.914-0.178,1.414-0.4,1.498-0.673
			c0.188-0.644,0.279-2.101,0.279-4.367V23.83c0-1.557-0.093-2.573-0.279-3.047c-0.135-0.305-0.517-0.546-1.143-0.724
			c-0.626-0.178-1.15-0.279-1.574-0.305c-0.423-0.026-0.795-0.038-1.117-0.038C203.541,19.666,203.498,19.438,203.48,19.031z"/>
		<path fill="#FFFFFF" d="M225.395,40.156c0.56,0,1.295-0.09,2.209-0.268c0.914-0.179,1.412-0.402,1.498-0.674
			c0.188-0.646,0.278-2.102,0.278-4.374V8.754c0-1.56-0.093-2.577-0.278-3.051c-0.306-0.711-1.508-1.068-3.604-1.068
			c-0.019,0-0.034-0.123-0.052-0.368s-0.021-0.495-0.014-0.749c0.008-0.254,0.055-0.389,0.142-0.406
			c2.69-0.271,5.476-1.058,8.354-2.361c0.151,0,0.301,0.106,0.443,0.317c0.145,0.212,0.216,0.419,0.216,0.622
			c-0.438,1.27-0.659,2.98-0.659,5.132v20.993c0.456-0.17,1.062-0.547,1.814-1.133s1.756-1.412,3.009-2.48
			c0.491-0.407,1.062-0.878,1.714-1.412s1.168-0.958,1.551-1.273c0.381-0.313,0.752-0.632,1.115-0.954
			c0.364-0.322,0.633-0.585,0.801-0.789c0.17-0.204,0.254-0.356,0.254-0.458c0-0.119-0.033-0.221-0.103-0.306
			s-0.155-0.157-0.269-0.216c-0.108-0.059-0.239-0.114-0.394-0.165c-0.153-0.051-0.305-0.093-0.457-0.127
			c-0.151-0.034-0.317-0.063-0.495-0.089c-0.178-0.026-0.33-0.042-0.457-0.051c-0.127-0.008-0.258-0.017-0.394-0.025
			s-0.229-0.021-0.279-0.038c-0.136-0.203-0.187-0.521-0.151-0.952c0.035-0.431,0.127-0.681,0.278-0.749
			c1.896,0.203,3.783,0.305,5.662,0.305c2.015,0,3.741-0.102,5.181-0.305c0.117,0.187,0.174,0.487,0.164,0.901
			c-0.009,0.415-0.062,0.682-0.164,0.8c-0.523,0-1.272,0.127-2.248,0.382c-0.974,0.255-1.737,0.585-2.297,0.992
			c-4.334,3.156-7.517,5.592-9.548,7.305c0.796,0.85,1.681,1.814,2.653,2.9c0.972,1.086,1.845,2.062,2.615,2.928
			s1.521,1.705,2.26,2.521c0.736,0.813,1.367,1.502,1.893,2.062c0.523,0.562,0.922,0.95,1.192,1.172
			c0.711,0.561,1.573,0.977,2.59,1.246c0.897,0.238,1.743,0.356,2.539,0.356c0.103,0,0.203,0,0.306,0
			c0.066,0.098,0.117,0.31,0.151,0.636c0,0.082,0,0.156,0,0.221c0,0.213-0.034,0.375-0.103,0.489
			c-0.221,0.103-0.721,0.187-1.498,0.254s-1.559,0.104-2.336,0.104c-1.559,0-3.019-0.283-4.379-0.851
			c-1.363-0.565-2.314-1.144-2.856-1.734c-3.386-3.646-6.195-6.678-8.431-9.094c-0.066-0.102-0.179-0.193-0.33-0.278
			c-0.151-0.087-0.278-0.153-0.381-0.204l-0.179-0.053v5.192c0,2.273,0.103,3.733,0.306,4.378c0.035,0.135,0.213,0.271,0.533,0.407
			s0.693,0.237,1.116,0.306c0.423,0.067,0.821,0.123,1.192,0.166s0.66,0.062,0.863,0.062c0.117,0.148,0.183,0.423,0.189,0.824
			c0.008,0.402-0.055,0.678-0.189,0.826c-0.543-0.033-1.234-0.074-2.082-0.123c-0.848-0.051-1.592-0.09-2.233-0.123
			c-0.646-0.033-1.31-0.049-1.993-0.049s-1.348,0.017-1.979,0.049c-0.635,0.031-1.367,0.072-2.196,0.123
			c-0.829,0.049-1.515,0.09-2.058,0.123c-0.151-0.148-0.229-0.402-0.229-0.766C225.165,40.616,225.241,40.32,225.395,40.156z"/>
		<path fill="#FFFFFF" d="M257.057,35.027c0.32-0.237,0.676-0.355,1.065-0.355c0.237,0,0.415,0.042,0.532,0.127
			c0.137,0.51,0.344,1.025,0.623,1.543c0.279,0.52,0.621,1.02,1.027,1.506c0.405,0.484,0.848,0.918,1.319,1.301
			c0.476,0.381,1.007,0.688,1.601,0.918s1.186,0.345,1.776,0.345c1.253,0,2.271-0.376,3.062-1.129
			c0.787-0.753,1.181-1.788,1.181-3.106c0-0.574-0.104-1.111-0.317-1.609c-0.212-0.498-0.466-0.92-0.762-1.269
			c-0.296-0.347-0.711-0.714-1.244-1.104c-0.533-0.389-1.016-0.696-1.447-0.926c-0.432-0.228-1.002-0.531-1.713-0.912
			c-0.712-0.381-1.279-0.697-1.701-0.953c-0.645-0.37-1.211-0.748-1.701-1.127c-0.49-0.381-0.955-0.823-1.396-1.332
			c-0.438-0.508-0.776-1.082-1.016-1.726c-0.237-0.642-0.354-1.344-0.354-2.104c0-1.413,0.409-2.677,1.23-3.793
			c0.82-1.116,1.879-1.967,3.174-2.555c1.295-0.587,2.67-0.881,4.126-0.881c0.651,0,1.267,0.043,1.837,0.13
			c0.572,0.087,1.223,0.201,1.948,0.339c0.728,0.139,1.405,0.244,2.038,0.313c0.416,1.784,0.656,3.958,0.728,6.521
			c0,0.188-0.192,0.279-0.584,0.279c-0.423,0-0.762-0.093-1.016-0.279c-0.146-0.592-0.363-1.188-0.647-1.788
			c-0.285-0.6-0.625-1.18-1.018-1.737s-0.86-1.015-1.407-1.37s-1.112-0.533-1.7-0.533c-0.914,0-1.688,0.165-2.322,0.495
			c-0.635,0.33-1.103,0.77-1.396,1.319c-0.296,0.55-0.443,1.18-0.443,1.89c0,0.423,0.041,0.816,0.127,1.179
			c0.084,0.364,0.229,0.698,0.433,1.002c0.203,0.306,0.401,0.566,0.597,0.787c0.194,0.219,0.479,0.457,0.852,0.709
			c0.373,0.254,0.683,0.453,0.928,0.596c0.244,0.145,0.605,0.353,1.078,0.621c0.475,0.271,0.839,0.482,1.093,0.636
			c0.203,0.136,0.55,0.343,1.041,0.621s0.869,0.5,1.137,0.659c0.267,0.16,0.617,0.397,1.054,0.709
			c0.438,0.312,0.787,0.588,1.056,0.824c0.267,0.237,0.562,0.533,0.884,0.889c0.323,0.354,0.574,0.697,0.752,1.027
			c0.18,0.329,0.327,0.709,0.448,1.142s0.182,0.866,0.182,1.307c0,1.552-0.411,2.95-1.237,4.198
			c-0.824,1.248-1.908,2.213-3.254,2.896c-1.347,0.682-2.793,1.023-4.345,1.023c-0.812,0-1.563-0.057-2.26-0.165
			c-0.694-0.108-1.508-0.274-2.438-0.495c-0.932-0.22-1.66-0.381-2.185-0.48c-0.237-0.609-0.466-1.588-0.687-2.935
			C257.169,36.867,257.057,35.807,257.057,35.027z"/>
	</g>
	<path fill="#FFFFFF" d="M126.722,2.664c0.195,0,2.246-0.097,6.152-0.293c0.078,0.157,0.107,0.479,0.088,0.967
		c-0.02,0.489-0.088,0.732-0.205,0.732c-0.274,0-0.606,0.029-0.996,0.088c-0.391,0.059-0.811,0.234-1.26,0.527
		c-0.45,0.293-0.674,0.655-0.674,1.084c0,1.172,0.449,2.618,1.348,4.336l12.13,24.023c0.116,0.196,0.272,0.245,0.469,0.146
		c0.194-0.097,0.332-0.244,0.41-0.438l4.862-10.137l-6.151-12.656c-1.133-2.304-2.267-4.179-3.397-5.625
		c-0.312-0.39-0.84-0.712-1.582-0.967c-0.743-0.253-1.348-0.381-1.816-0.381c-0.157,0-0.234-0.293-0.234-0.879
		c0-0.39,0.078-0.664,0.234-0.82c4.492,0.196,6.954,0.293,7.381,0.293c0.156,0,2.188-0.097,6.096-0.293
		c0.076,0.157,0.105,0.479,0.088,0.967c-0.021,0.489-0.088,0.732-0.205,0.732c-0.273,0-0.598,0.029-0.967,0.088
		c-0.372,0.059-0.782,0.225-1.229,0.498c-0.451,0.274-0.676,0.645-0.676,1.113c0,1.016,0.449,2.461,1.35,4.336l3.867,7.91
		l4.102-8.613c0.546-1.21,0.82-2.344,0.82-3.398c0-0.664-0.42-1.152-1.262-1.465c-0.84-0.312-1.572-0.469-2.195-0.469
		c-0.158,0-0.234-0.244-0.234-0.732c0-0.488,0.078-0.81,0.234-0.967c3.125,0.196,5.098,0.293,5.918,0.293
		c0.154,0,2.187-0.097,6.094-0.293c0.078,0.157,0.107,0.479,0.088,0.967c-0.02,0.489-0.088,0.732-0.205,0.732
		c-0.391,0-1.064,0.157-2.021,0.469c-0.957,0.313-1.631,0.703-2.021,1.172c-0.703,0.86-1.836,2.871-3.397,6.035l-4.513,9.258
		l6.388,13.125c0.233,0.432,0.469,0.333,0.703-0.293L170.79,9.754c0.664-1.601,0.996-2.832,0.996-3.691
		c0-0.664-0.401-1.162-1.201-1.494c-0.801-0.332-1.515-0.498-2.14-0.498c-0.156,0-0.233-0.244-0.233-0.732
		c0-0.488,0.078-0.81,0.233-0.967c3.125,0.196,5.117,0.293,5.978,0.293c0.897,0,1.642-0.019,2.228-0.059
		c0.586-0.039,1.19-0.078,1.815-0.117c0.625-0.039,1.21-0.078,1.759-0.117c0.078,0.234,0.116,0.527,0.116,0.879
		c0,0.547-0.079,0.82-0.233,0.82c-0.392,0-1.017,0.146-1.875,0.439c-0.859,0.293-1.504,0.694-1.935,1.201
		c-1.133,1.329-2.266,3.301-3.397,5.918l-12.422,28.125c-0.586,1.25-1.349,1.875-2.285,1.875c-0.233,0-0.409-0.1-0.526-0.293
		l-7.147-14.646l-6.328,13.064c-0.586,1.25-1.349,1.875-2.284,1.875c-0.234,0-0.41-0.1-0.527-0.293l-15.234-30.293
		c-1.133-2.304-2.266-4.179-3.398-5.625c-0.313-0.39-0.84-0.712-1.582-0.967c-0.743-0.253-1.348-0.381-1.816-0.381
		c-0.157,0-0.234-0.253-0.234-0.762c0-0.469,0.078-0.781,0.234-0.938C123.831,2.567,126.292,2.664,126.722,2.664z"/>
</g>
</svg>
