<?xml version="1.0" encoding="utf-8"?>
<!-- Generator: Adobe Illustrator 16.0.4, SVG Export Plug-In . SVG Version: 6.00 Build 0)  -->
<!DOCTYPE svg PUBLIC "-//W3C//DTD SVG 1.1 Tiny//EN" "http://www.w3.org/Graphics/SVG/1.1/DTD/svg11-tiny.dtd">
<svg version="1.1" baseProfile="tiny" id="EarthWorks"
	 xmlns="http://www.w3.org/2000/svg" xmlns:xlink="http://www.w3.org/1999/xlink" x="0px" y="0px" width="350px" height="44px"
	 viewBox="0 0 350 44" xml:space="preserve">
<g>
	<path fill="#FFFFFF" d="M128.222,2.664c0.195,0,2.246-0.097,6.152-0.293c0.078,0.157,0.107,0.479,0.088,0.967
		c-0.02,0.489-0.088,0.732-0.205,0.732c-0.274,0-0.606,0.029-0.996,0.088c-0.391,0.059-0.811,0.234-1.26,0.527
		c-0.45,0.293-0.674,0.655-0.674,1.084c0,1.172,0.449,2.618,1.348,4.336l12.129,24.023c0.117,0.196,0.273,0.245,0.469,0.146
		c0.195-0.097,0.332-0.244,0.41-0.439l4.863-10.137l-6.152-12.656c-1.133-2.304-2.266-4.179-3.398-5.625
		c-0.313-0.39-0.84-0.712-1.582-0.967c-0.743-0.253-1.348-0.381-1.816-0.381c-0.157,0-0.234-0.293-0.234-0.879
		c0-0.39,0.078-0.664,0.234-0.82c4.492,0.196,6.953,0.293,7.383,0.293c0.156,0,2.187-0.097,6.094-0.293
		c0.078,0.157,0.107,0.479,0.088,0.967c-0.02,0.489-0.088,0.732-0.205,0.732c-0.274,0-0.596,0.029-0.967,0.088
		c-0.372,0.059-0.782,0.225-1.23,0.498c-0.45,0.274-0.674,0.645-0.674,1.113c0,1.016,0.449,2.461,1.348,4.336l3.867,7.91
		l4.102-8.613c0.546-1.21,0.82-2.344,0.82-3.398c0-0.664-0.42-1.152-1.26-1.465c-0.84-0.312-1.573-0.469-2.197-0.469
		c-0.157,0-0.234-0.244-0.234-0.732c0-0.488,0.078-0.81,0.234-0.967c3.125,0.196,5.098,0.293,5.918,0.293
		c0.156,0,2.187-0.097,6.094-0.293c0.078,0.157,0.107,0.479,0.088,0.967c-0.02,0.489-0.088,0.732-0.205,0.732
		c-0.391,0-1.065,0.157-2.021,0.469c-0.958,0.313-1.631,0.703-2.021,1.172c-0.703,0.86-1.836,2.871-3.398,6.035l-4.512,9.258
		l6.387,13.125c0.234,0.43,0.469,0.333,0.703-0.293l10.488-24.082c0.664-1.601,0.996-2.832,0.996-3.691
		c0-0.664-0.401-1.162-1.201-1.494c-0.801-0.332-1.514-0.498-2.139-0.498c-0.157,0-0.234-0.244-0.234-0.732
		c0-0.488,0.078-0.81,0.234-0.967c3.125,0.196,5.117,0.293,5.977,0.293c0.898,0,1.641-0.019,2.227-0.059
		c0.586-0.039,1.191-0.078,1.816-0.117c0.625-0.039,1.21-0.078,1.758-0.117c0.078,0.234,0.117,0.527,0.117,0.879
		c0,0.547-0.079,0.82-0.234,0.82c-0.391,0-1.016,0.146-1.875,0.439c-0.86,0.293-1.504,0.694-1.934,1.201
		c-1.133,1.329-2.266,3.301-3.398,5.918l-12.422,28.125c-0.586,1.25-1.348,1.875-2.285,1.875c-0.234,0-0.41-0.098-0.527-0.293
		l-7.148-14.648l-6.328,13.066c-0.586,1.25-1.348,1.875-2.285,1.875c-0.234,0-0.41-0.098-0.527-0.293l-15.234-30.293
		c-1.133-2.304-2.266-4.179-3.398-5.625c-0.313-0.39-0.84-0.712-1.582-0.967c-0.743-0.253-1.348-0.381-1.816-0.381
		c-0.157,0-0.234-0.253-0.234-0.762c0-0.469,0.078-0.781,0.234-0.938C125.331,2.567,127.792,2.664,128.222,2.664z"/>
</g>
<g id="Paths">
	<g>
		<path fill="#FFFFFF" d="M2.21,39.953c0.609,0,1.422-0.089,2.438-0.267s1.557-0.402,1.625-0.673
			c0.203-0.643,0.305-2.099,0.305-4.367V9.484c0-2.268-0.102-3.715-0.305-4.342C6.205,4.855,5.663,4.622,4.647,4.444
			S2.819,4.178,2.21,4.178C2.074,4.017,2.007,3.721,2.007,3.291c0-0.018,0-0.045,0-0.081c0-0.347,0.067-0.591,0.203-0.733
			c0.406,0.016,1.138,0.052,2.196,0.107c1.058,0.055,1.942,0.098,2.653,0.13s1.413,0.047,2.107,0.047
			c1.777,0,4.828-0.064,9.153-0.193c4.325-0.128,7.596-0.193,9.813-0.193c0.169,1.123,0.474,2.61,0.914,4.461
			c0.44,1.851,0.702,3.022,0.787,3.514c-0.187,0.219-0.533,0.328-1.041,0.328s-0.787-0.147-0.838-0.443
			c-0.305-1.163-0.686-2.13-1.143-2.903c-0.457-0.772-0.99-1.354-1.6-1.744c-0.609-0.391-1.228-0.66-1.854-0.808
			c-0.626-0.147-1.371-0.221-2.234-0.221h-5.053c-0.271,0-0.584,0.009-0.939,0.026c-0.355,0.018-0.783,0.047-1.282,0.09
			c-0.5,0.043-0.923,0.112-1.27,0.207c-0.347,0.094-0.538,0.21-0.571,0.348c-0.203,0.636-0.305,2.055-0.305,4.255v11.167
			c0,0.241,0.846,0.361,2.539,0.361h3.123c0.728,0,1.32,0,1.777,0s0.91-0.035,1.358-0.104c0.448-0.069,0.787-0.125,1.016-0.168
			c0.229-0.043,0.465-0.156,0.711-0.338c0.245-0.182,0.419-0.329,0.521-0.441s0.22-0.346,0.355-0.7
			c0.135-0.355,0.237-0.649,0.305-0.882c0.067-0.233,0.169-0.627,0.305-1.181c0.051-0.225,0.093-0.398,0.127-0.519
			c0.051-0.276,0.347-0.415,0.889-0.415c0.457,0,0.787,0.113,0.99,0.338v11.074c-0.152,0.229-0.466,0.344-0.939,0.344
			c-0.508,0-0.821-0.155-0.939-0.467c-0.288-1.106-0.529-1.936-0.724-2.488c-0.195-0.553-0.347-0.903-0.457-1.05
			c-0.11-0.147-0.267-0.29-0.47-0.428c-0.491-0.329-2.573-0.493-6.246-0.493c-2.827,0-4.24,0.177-4.24,0.532v11.162
			c0,0.372,0,0.705,0,1c0,0.295,0.013,0.696,0.038,1.202c0.025,0.506,0.063,0.924,0.114,1.253c0.051,0.33,0.118,0.527,0.203,0.595
			c0.355,0.271,0.791,0.435,1.308,0.494c0.516,0.059,1.477,0.08,2.882,0.063h2.818c1.422,0,2.81-0.139,4.164-0.417
			c1.354-0.278,2.438-0.663,3.25-1.152c0.372-0.203,0.719-0.472,1.041-0.81c0.321-0.337,0.592-0.67,0.812-1
			c0.22-0.329,0.453-0.755,0.698-1.278c0.245-0.523,0.44-0.966,0.584-1.329c0.144-0.363,0.334-0.865,0.571-1.506
			c0.067-0.236,0.347-0.354,0.838-0.354c0.186,0,0.385,0.017,0.597,0.051c0.211,0.034,0.394,0.08,0.546,0.14
			c0.152,0.059,0.262,0.114,0.33,0.164c-0.187,0.506-0.482,1.321-0.889,2.442c-0.406,1.122-0.736,2.029-0.99,2.721
			s-0.512,1.488-0.774,2.388c-0.263,0.9-0.436,1.651-0.521,2.251c-2.031,0-5.205-0.038-9.521-0.114s-7.846-0.114-10.588-0.114
			c-0.948,0-2.171,0.029-3.669,0.089c-1.498,0.059-2.611,0.089-3.339,0.089c-0.136-0.136-0.203-0.397-0.203-0.787
			C2.007,40.427,2.074,40.123,2.21,39.953z"/>
		<path fill="#FFFFFF" d="M36.31,35.149c0-1.126,0.316-2.133,0.949-3.021c0.632-0.888,1.321-1.468,2.066-1.741
			c0.641-0.222,1.568-0.542,2.782-0.96c1.213-0.418,2.262-0.777,3.146-1.076c0.884-0.299,1.76-0.615,2.63-0.947
			c0.869-0.333,1.506-0.585,1.912-0.755c0.151-0.068,0.27-0.128,0.354-0.18c0.084-0.051,0.156-0.132,0.215-0.243
			c0.059-0.111,0.097-0.248,0.114-0.41c0.017-0.162,0.025-0.38,0.025-0.653v-1.614c0-0.888-0.219-1.767-0.657-2.638
			c-0.438-0.871-1.047-1.596-1.83-2.177c-0.782-0.58-1.636-0.871-2.562-0.871c-0.977,0-1.7,0.303-2.171,0.909
			c-0.471,0.606-0.816,1.524-1.035,2.753c-0.185,0.99-0.505,1.715-0.959,2.177c-0.455,0.461-1.051,0.691-1.792,0.691
			c-0.589,0-1.068-0.256-1.438-0.768c-0.371-0.512-0.556-1.093-0.556-1.742c0-0.083,0.017-0.211,0.051-0.384
			c0.034-0.174,0.084-0.36,0.152-0.559c0.067-0.198,0.135-0.338,0.203-0.421c0.508-0.463,1.13-0.947,1.866-1.451
			s1.583-1.013,2.539-1.525c0.956-0.513,1.993-0.935,3.11-1.266c1.117-0.331,2.184-0.496,3.199-0.496
			c1.709,0,3.208,0.775,4.494,2.324c1.286,1.549,1.93,3.424,1.93,5.622v12.241c0,1.861,0.605,2.792,1.816,2.792
			c0.168,0,0.336-0.017,0.504-0.051c0.168-0.034,0.311-0.072,0.429-0.115c0.117-0.043,0.239-0.099,0.365-0.167
			c0.126-0.068,0.223-0.127,0.29-0.179s0.139-0.103,0.215-0.154c0.075-0.051,0.113-0.085,0.113-0.103
			c0.169,0,0.254,0.162,0.254,0.486c0,0.407-0.102,0.78-0.304,1.12c-0.456,0.406-1.165,0.88-2.127,1.422s-1.721,0.812-2.278,0.812
			c-0.827,0-1.593-0.398-2.298-1.195s-1.153-1.679-1.343-2.645c-0.574,0.577-1.701,1.382-3.382,2.416s-2.968,1.551-3.863,1.551
			c-2.017,0-3.709-0.655-5.078-1.964C36.994,38.686,36.31,37.071,36.31,35.149z M41.438,34.611c0,0.717,0.173,1.396,0.519,2.036
			c0.346,0.641,0.823,1.153,1.431,1.537c0.607,0.384,1.274,0.576,2,0.576c0.49,0,1.042-0.098,1.659-0.294
			c0.616-0.196,1.173-0.427,1.671-0.691c0.498-0.265,0.92-0.534,1.266-0.807c0.346-0.273,0.52-0.486,0.52-0.64V28.26
			c-3.039,0.905-4.861,1.477-5.469,1.716c-1.115,0.427-1.993,1.033-2.634,1.818C41.759,32.58,41.438,33.519,41.438,34.611z"/>
		<path fill="#FFFFFF" d="M61.37,18.879c0-0.051,0-0.11,0-0.178c0-0.305,0.042-0.524,0.127-0.66c3.352-0.474,6.161-1.303,8.43-2.488
			c0.135,0,0.275,0.119,0.419,0.355c0.144,0.237,0.216,0.432,0.216,0.584c-0.034,0.237-0.11,1.126-0.229,2.666
			c-0.119,1.541-0.178,2.463-0.178,2.768c0,0.102,0.029,0.157,0.089,0.165c0.059,0.009,0.105-0.013,0.14-0.063
			c0.305-0.643,0.711-1.324,1.219-2.044c0.508-0.719,1.07-1.4,1.688-2.044c0.618-0.643,1.291-1.172,2.019-1.587
			c0.728-0.415,1.405-0.622,2.031-0.622c0.762,0,1.485,0.165,2.171,0.495s1.155,0.732,1.409,1.206
			c0.169,0.474,0.254,1.007,0.254,1.6c0,0.965-0.225,1.718-0.673,2.26c-0.449,0.542-0.876,0.812-1.282,0.812
			c-0.187,0-0.385-0.042-0.597-0.127c-0.212-0.084-0.39-0.178-0.533-0.279c-0.144-0.102-0.33-0.229-0.559-0.381
			s-0.394-0.262-0.495-0.33c-0.694-0.474-1.414-0.711-2.158-0.711c-0.609,0-1.215,0.212-1.815,0.635
			c-0.601,0.423-1.104,0.927-1.511,1.511s-0.741,1.168-1.003,1.752c-0.263,0.584-0.394,1.054-0.394,1.409v9.064
			c0,2.269,0.102,3.724,0.305,4.367c0.067,0.271,0.757,0.495,2.069,0.673c1.312,0.178,2.306,0.267,2.983,0.267
			c0.118,0.152,0.182,0.436,0.19,0.851c0.008,0.415-0.055,0.698-0.19,0.851c-4.029-0.203-6.466-0.305-7.312-0.305
			c-0.677,0-1.358,0.017-2.044,0.051c-0.686,0.034-1.49,0.08-2.412,0.14c-0.923,0.059-1.629,0.097-2.12,0.114
			c-0.152-0.152-0.225-0.436-0.216-0.851c0.008-0.415,0.08-0.698,0.216-0.851c0.559,0,1.295-0.089,2.209-0.267
			s1.413-0.402,1.498-0.673c0.186-0.643,0.279-2.099,0.279-4.367V23.678c0-1.557-0.093-2.573-0.279-3.047
			c-0.136-0.305-0.517-0.546-1.143-0.724c-0.626-0.178-1.151-0.279-1.574-0.305c-0.423-0.025-0.796-0.038-1.117-0.038
			C61.429,19.514,61.387,19.285,61.37,18.879z"/>
		<path fill="#FFFFFF" d="M83.231,17.914c0-0.102,0.218-0.402,0.655-0.901c0.438-0.499,0.731-0.825,0.883-0.978h2.169v-3.707
			c0.306-0.372,0.757-0.88,1.353-1.523c0.596-0.643,1.111-1.197,1.545-1.663c0.434-0.465,0.668-0.724,0.702-0.774
			c0.102-0.102,0.23-0.169,0.383-0.203c0.102-0.034,0.187-0.042,0.255-0.025c0.051,0.017,0.093,0.025,0.127,0.025
			c0.102,0.034,0.162,0.085,0.179,0.152v7.719h7.567c0.084,0,0.147,0.013,0.189,0.038s0.072,0.076,0.089,0.152
			c0.017,0.076,0.025,0.14,0.025,0.19s0,0.136,0,0.254c0,0.626-0.27,1.219-0.81,1.777h-7.062v15.438
			c0,1.574,0.325,2.772,0.975,3.593c0.649,0.821,1.615,1.231,2.898,1.231c0.54,0,1.105-0.102,1.695-0.305s1.038-0.389,1.341-0.559
			c0.304-0.169,0.565-0.33,0.785-0.482c0.118,0.051,0.177,0.187,0.177,0.406c0,0.102-0.017,0.22-0.051,0.355
			c-0.034,0.136-0.068,0.25-0.102,0.343c-0.034,0.093-0.06,0.157-0.076,0.19c-0.271,0.305-0.58,0.609-0.927,0.914
			c-0.347,0.305-0.787,0.647-1.32,1.028s-1.134,0.69-1.803,0.927c-0.669,0.237-1.342,0.355-2.019,0.355
			c-0.644,0-1.244-0.055-1.803-0.165c-0.559-0.11-1.109-0.313-1.65-0.609c-0.542-0.296-1.007-0.677-1.396-1.143
			c-0.39-0.465-0.698-1.079-0.927-1.841s-0.343-1.625-0.343-2.59V18.447h-3.404c-0.084,0-0.156-0.063-0.215-0.19
			C83.261,18.13,83.231,18.016,83.231,17.914z"/>
		<path fill="#FFFFFF" d="M101.589,39.953c0.559,0,1.295-0.089,2.209-0.267s1.413-0.402,1.498-0.673
			c0.186-0.643,0.279-2.099,0.279-4.367V8.596c0-1.557-0.093-2.573-0.279-3.047c-0.305-0.711-1.507-1.066-3.605-1.066
			c-0.017,0-0.034-0.123-0.051-0.368c-0.017-0.245-0.021-0.495-0.013-0.749c0.008-0.254,0.055-0.389,0.14-0.406
			c2.691-0.271,5.476-1.058,8.354-2.361c0.152,0,0.3,0.106,0.444,0.317c0.144,0.212,0.216,0.419,0.216,0.622
			c-0.44,1.27-0.66,2.979-0.66,5.129v13.305c0,0.085,0.059,0.127,0.178,0.127c0.034,0,0.093-0.042,0.178-0.127
			c0.321-0.355,0.774-0.762,1.358-1.219s1.244-0.922,1.98-1.396c0.736-0.474,1.523-0.872,2.361-1.193
			c0.838-0.321,1.587-0.482,2.247-0.482c0.914,0,1.727,0.085,2.438,0.254c0.711,0.169,1.333,0.411,1.866,0.724
			c0.533,0.313,0.99,0.732,1.371,1.257c0.381,0.525,0.694,1.104,0.939,1.739c0.245,0.635,0.444,1.405,0.597,2.311
			c0.152,0.906,0.258,1.845,0.317,2.818c0.059,0.974,0.089,2.104,0.089,3.39v6.475c0,2.269,0.093,3.724,0.279,4.367
			c0.051,0.187,0.347,0.355,0.889,0.508c0.542,0.152,1.075,0.263,1.6,0.33c0.524,0.068,0.931,0.102,1.219,0.102
			c0.152,0.169,0.229,0.457,0.229,0.863c0,0.017,0,0.034,0,0.051c0,0.373-0.076,0.635-0.229,0.787
			c-0.542-0.034-1.231-0.076-2.069-0.127s-1.583-0.093-2.234-0.127c-0.652-0.034-1.316-0.051-1.993-0.051
			c-0.677,0-1.337,0.017-1.98,0.051c-0.644,0.034-1.38,0.076-2.209,0.127c-0.83,0.051-1.515,0.093-2.057,0.127
			c-0.136-0.152-0.199-0.436-0.19-0.851c0.008-0.415,0.072-0.698,0.19-0.851c0.575,0,1.32-0.089,2.234-0.267
			s1.405-0.402,1.473-0.673c0.203-0.643,0.305-2.099,0.305-4.367v-5.891c0-1.896-0.085-3.432-0.254-4.608
			c-0.169-1.176-0.474-2.158-0.914-2.945c-0.44-0.787-1.028-1.337-1.765-1.65c-0.736-0.313-1.68-0.47-2.831-0.47
			c-0.677,0-1.473,0.237-2.387,0.711c-0.914,0.474-1.68,0.969-2.298,1.485c-0.618,0.517-0.927,0.868-0.927,1.054v12.314
			c0,2.269,0.102,3.724,0.305,4.367c0.034,0.136,0.211,0.271,0.533,0.406c0.321,0.136,0.694,0.237,1.117,0.305
			c0.423,0.068,0.821,0.123,1.193,0.165c0.372,0.042,0.66,0.063,0.863,0.063c0.118,0.152,0.182,0.436,0.19,0.851
			c0.008,0.415-0.055,0.698-0.19,0.851c-0.542-0.034-1.236-0.076-2.082-0.127c-0.847-0.051-1.591-0.093-2.234-0.127
			c-0.644-0.034-1.308-0.051-1.993-0.051s-1.346,0.017-1.98,0.051c-0.635,0.034-1.367,0.076-2.196,0.127
			c-0.83,0.051-1.515,0.093-2.057,0.127c-0.152-0.152-0.229-0.415-0.229-0.787C101.36,40.427,101.437,40.123,101.589,39.953z"/>
	</g>
	<g>
		<path fill="#FFFFFF" d="M174.554,29.087c0-1.879,0.323-3.639,0.968-5.281s1.523-3.051,2.636-4.228
			c1.112-1.177,2.449-2.104,4.011-2.781c1.562-0.677,3.217-1.016,4.966-1.016c2.546,0,4.788,0.559,6.724,1.676
			c1.935,1.117,3.408,2.64,4.418,4.57s1.516,4.121,1.516,6.576c0,1.879-0.323,3.648-0.968,5.307
			c-0.646,1.659-1.52,3.085-2.623,4.279c-1.104,1.193-2.433,2.133-3.986,2.818c-1.553,0.686-3.204,1.028-4.953,1.028
			c-1.918,0-3.676-0.33-5.271-0.99c-1.596-0.66-2.933-1.565-4.011-2.716s-1.918-2.522-2.521-4.113
			C174.855,32.625,174.554,30.915,174.554,29.087z M179.683,27.888c0,1.174,0.109,2.338,0.329,3.495s0.558,2.262,1.014,3.316
			c0.457,1.054,1.005,1.985,1.647,2.793c0.642,0.808,1.411,1.454,2.307,1.938c0.896,0.484,1.851,0.727,2.865,0.727
			c0.811,0,1.559-0.136,2.243-0.408c0.685-0.272,1.272-0.646,1.762-1.123s0.916-1.033,1.279-1.67
			c0.364-0.638,0.655-1.343,0.875-2.117c0.22-0.773,0.384-1.564,0.494-2.372c0.11-0.808,0.165-1.636,0.165-2.487
			c0-1.462-0.182-2.916-0.545-4.361s-0.883-2.763-1.559-3.954c-0.677-1.19-1.543-2.155-2.599-2.895
			c-1.056-0.74-2.209-1.11-3.46-1.11c-0.98,0-1.859,0.196-2.636,0.587s-1.424,0.91-1.939,1.556
			c-0.516,0.646-0.946,1.411-1.292,2.295c-0.347,0.884-0.592,1.807-0.735,2.768S179.683,26.833,179.683,27.888z"/>
		<path fill="#FFFFFF" d="M203.981,19.031c0-0.051,0-0.11,0-0.178c0-0.305,0.042-0.524,0.127-0.66
			c3.352-0.474,6.161-1.303,8.43-2.488c0.136,0,0.275,0.119,0.419,0.355c0.144,0.237,0.216,0.432,0.216,0.584
			c-0.034,0.237-0.11,1.126-0.229,2.666c-0.118,1.541-0.178,2.463-0.178,2.768c0,0.102,0.029,0.157,0.089,0.165
			c0.06,0.009,0.105-0.013,0.14-0.063c0.305-0.643,0.711-1.324,1.219-2.044c0.508-0.719,1.07-1.4,1.688-2.044
			c0.618-0.643,1.291-1.172,2.019-1.587c0.728-0.415,1.405-0.622,2.031-0.622c0.762,0,1.485,0.165,2.171,0.495
			s1.155,0.732,1.409,1.206c0.169,0.474,0.254,1.007,0.254,1.6c0,0.965-0.225,1.718-0.673,2.26
			c-0.448,0.542-0.876,0.812-1.282,0.812c-0.187,0-0.385-0.042-0.597-0.127c-0.212-0.084-0.39-0.178-0.533-0.279
			s-0.33-0.229-0.559-0.381s-0.394-0.262-0.495-0.33c-0.694-0.474-1.413-0.711-2.158-0.711c-0.609,0-1.215,0.212-1.815,0.635
			c-0.601,0.423-1.104,0.927-1.511,1.511s-0.74,1.168-1.003,1.752s-0.394,1.054-0.394,1.409v9.064c0,2.269,0.102,3.724,0.305,4.367
			c0.067,0.271,0.758,0.495,2.069,0.673s2.307,0.267,2.983,0.267c0.118,0.152,0.182,0.436,0.19,0.851
			c0.009,0.415-0.055,0.698-0.19,0.851c-4.028-0.203-6.466-0.305-7.312-0.305c-0.677,0-1.358,0.017-2.044,0.051
			c-0.686,0.034-1.489,0.08-2.412,0.14c-0.923,0.059-1.629,0.097-2.12,0.114c-0.152-0.152-0.225-0.436-0.216-0.851
			c0.009-0.415,0.08-0.698,0.216-0.851c0.559,0,1.295-0.089,2.209-0.267s1.413-0.402,1.498-0.673
			c0.187-0.643,0.279-2.099,0.279-4.367V23.83c0-1.557-0.093-2.573-0.279-3.047c-0.136-0.305-0.517-0.546-1.143-0.724
			s-1.151-0.279-1.574-0.305s-0.796-0.038-1.117-0.038C204.041,19.666,203.998,19.438,203.981,19.031z"/>
		<path fill="#FFFFFF" d="M225.894,40.156c0.559,0,1.295-0.089,2.209-0.267c0.914-0.178,1.413-0.402,1.498-0.673
			c0.187-0.645,0.279-2.102,0.279-4.374V8.754c0-1.56-0.093-2.577-0.279-3.051c-0.305-0.711-1.507-1.068-3.605-1.068
			c-0.017,0-0.034-0.123-0.051-0.368c-0.017-0.245-0.021-0.495-0.013-0.749s0.055-0.389,0.14-0.406
			c2.691-0.271,5.476-1.058,8.354-2.361c0.152,0,0.301,0.106,0.444,0.317c0.144,0.212,0.216,0.419,0.216,0.622
			c-0.44,1.27-0.66,2.98-0.66,5.132v20.992c0.457-0.169,1.062-0.547,1.815-1.132c0.753-0.586,1.756-1.413,3.009-2.482
			c0.491-0.407,1.062-0.878,1.714-1.412s1.168-0.958,1.549-1.273c0.381-0.313,0.753-0.632,1.117-0.954s0.631-0.585,0.8-0.789
			s0.254-0.356,0.254-0.458c0-0.119-0.034-0.221-0.102-0.306s-0.156-0.157-0.267-0.216c-0.11-0.059-0.241-0.114-0.394-0.165
			s-0.305-0.093-0.457-0.127c-0.152-0.034-0.317-0.063-0.495-0.089s-0.33-0.042-0.457-0.051c-0.127-0.008-0.258-0.017-0.394-0.025
			c-0.136-0.008-0.229-0.021-0.279-0.038c-0.136-0.203-0.187-0.521-0.152-0.952s0.127-0.681,0.279-0.749
			c1.896,0.203,3.783,0.305,5.662,0.305c2.015,0,3.741-0.102,5.18-0.305c0.118,0.187,0.174,0.487,0.165,0.901
			c-0.009,0.415-0.063,0.682-0.165,0.8c-0.524,0-1.273,0.127-2.247,0.382s-1.739,0.585-2.298,0.992
			c-4.333,3.156-7.516,5.591-9.547,7.304c0.796,0.849,1.68,1.815,2.653,2.901s1.845,2.062,2.615,2.927
			c0.771,0.866,1.523,1.706,2.26,2.52c0.736,0.814,1.367,1.502,1.892,2.062c0.524,0.56,0.923,0.95,1.193,1.171
			c0.711,0.56,1.574,0.976,2.59,1.247c0.897,0.238,1.743,0.356,2.539,0.356c0.102,0,0.203,0,0.305,0
			c0.067,0.098,0.118,0.31,0.152,0.636c0,0.082,0,0.156,0,0.221c0,0.212-0.034,0.375-0.102,0.489
			c-0.22,0.102-0.72,0.186-1.498,0.254c-0.778,0.067-1.558,0.102-2.336,0.102c-1.558,0-3.018-0.283-4.38-0.849
			s-2.314-1.144-2.856-1.735c-3.386-3.647-6.195-6.678-8.43-9.093c-0.067-0.102-0.178-0.195-0.33-0.28s-0.279-0.153-0.381-0.204
			l-0.178-0.051v5.192c0,2.273,0.102,3.733,0.305,4.377c0.034,0.136,0.212,0.272,0.533,0.408c0.321,0.135,0.694,0.237,1.117,0.305
			s0.821,0.123,1.193,0.166s0.66,0.063,0.863,0.063c0.118,0.148,0.182,0.423,0.19,0.825s-0.055,0.677-0.19,0.825
			c-0.542-0.033-1.235-0.074-2.082-0.123c-0.847-0.05-1.591-0.09-2.234-0.123c-0.644-0.033-1.308-0.049-1.993-0.049
			s-1.346,0.017-1.98,0.049c-0.635,0.032-1.367,0.073-2.196,0.123c-0.829,0.049-1.515,0.09-2.057,0.123
			c-0.152-0.148-0.229-0.402-0.229-0.764C225.665,40.616,225.741,40.32,225.894,40.156z"/>
		<path fill="#FFFFFF" d="M257.556,35.027c0.321-0.237,0.677-0.355,1.066-0.355c0.237,0,0.415,0.042,0.533,0.127
			c0.136,0.51,0.343,1.025,0.622,1.543c0.279,0.519,0.622,1.02,1.028,1.505s0.847,0.918,1.32,1.301
			c0.474,0.382,1.007,0.688,1.6,0.918s1.185,0.344,1.777,0.344c1.253,0,2.272-0.376,3.06-1.129c0.787-0.752,1.181-1.788,1.181-3.106
			c0-0.575-0.105-1.112-0.317-1.61c-0.212-0.499-0.466-0.921-0.762-1.268s-0.711-0.714-1.244-1.103
			c-0.533-0.389-1.016-0.698-1.447-0.926c-0.432-0.228-1.003-0.532-1.714-0.913c-0.711-0.381-1.278-0.698-1.701-0.952
			c-0.644-0.372-1.21-0.748-1.701-1.128c-0.491-0.38-0.956-0.824-1.396-1.332s-0.778-1.082-1.016-1.725
			c-0.237-0.642-0.355-1.344-0.355-2.105c0-1.414,0.41-2.678,1.231-3.794s1.879-1.967,3.174-2.555
			c1.295-0.587,2.67-0.881,4.126-0.881c0.653,0,1.266,0.043,1.837,0.13c0.572,0.087,1.222,0.201,1.948,0.339
			c0.727,0.139,1.406,0.244,2.038,0.313c0.416,1.784,0.658,3.958,0.728,6.522c0,0.187-0.194,0.28-0.584,0.28
			c-0.423,0-0.762-0.093-1.016-0.279c-0.146-0.592-0.363-1.188-0.648-1.788c-0.286-0.6-0.625-1.18-1.017-1.737
			s-0.86-1.015-1.407-1.37s-1.114-0.533-1.701-0.533c-0.914,0-1.688,0.165-2.323,0.495s-1.101,0.77-1.396,1.319
			c-0.296,0.55-0.444,1.18-0.444,1.89c0,0.423,0.042,0.816,0.127,1.179c0.085,0.364,0.229,0.698,0.432,1.002
			s0.402,0.566,0.597,0.786c0.194,0.22,0.479,0.457,0.851,0.71c0.372,0.254,0.682,0.453,0.927,0.596s0.605,0.351,1.079,0.621
			c0.474,0.271,0.838,0.482,1.092,0.634c0.203,0.136,0.55,0.343,1.041,0.622s0.869,0.499,1.137,0.659
			c0.266,0.161,0.617,0.398,1.054,0.71c0.436,0.312,0.787,0.587,1.054,0.824c0.267,0.237,0.562,0.533,0.884,0.888
			c0.323,0.355,0.574,0.697,0.752,1.027c0.178,0.33,0.327,0.71,0.448,1.142s0.182,0.866,0.182,1.306c0,1.551-0.412,2.95-1.238,4.198
			c-0.824,1.248-1.909,2.213-3.254,2.896c-1.346,0.682-2.793,1.024-4.344,1.024c-0.812,0-1.565-0.055-2.26-0.165
			c-0.694-0.11-1.507-0.275-2.438-0.495s-1.659-0.381-2.184-0.482c-0.237-0.609-0.466-1.587-0.686-2.933
			S257.556,35.806,257.556,35.027z"/>
	</g>
	<g>
		<path fill="#FFFFFF" d="M295.521,13.094c0-0.062-0.002-0.125-0.006-0.191c-0.006-0.065-0.003-0.129,0.006-0.191
			c0.009-0.132,0.031-0.202,0.066-0.211c1.397-0.141,2.848-0.549,4.35-1.226c0.076,0,0.15,0.055,0.223,0.165
			c0.071,0.11,0.107,0.217,0.107,0.323c-0.22,0.659-0.33,1.547-0.33,2.663v6.025c0,0.053,0.002,0.097,0.008,0.132
			c0.004,0.035,0.01,0.082,0.02,0.139c0.008,0.057,0.025,0.081,0.053,0.072c0.025-0.009,0.061-0.022,0.104-0.04
			c0.421-0.308,1.018-0.659,1.79-1.055c0.771-0.396,1.408-0.593,1.908-0.593c0.723,0,1.396,0.127,2.021,0.381
			c0.624,0.254,1.154,0.594,1.592,1.019s0.814,0.91,1.132,1.453s0.554,1.104,0.71,1.683s0.234,1.148,0.234,1.709
			c0,0.996-0.195,1.945-0.587,2.848s-0.92,1.685-1.587,2.345c-0.666,0.661-1.477,1.187-2.432,1.579
			c-0.955,0.392-1.966,0.588-3.032,0.588c-0.439,0-1.196-0.16-2.269-0.479c-0.053-0.009-0.162-0.039-0.33-0.089
			c-0.167-0.05-0.281-0.082-0.344-0.096c-0.061-0.014-0.163-0.037-0.305-0.068c-0.141-0.032-0.256-0.046-0.344-0.042
			c-0.089,0.005-0.195,0.014-0.318,0.027c-0.124,0.014-0.243,0.043-0.358,0.089c-0.067,0-0.148-0.094-0.242-0.283
			c-0.093-0.188-0.14-0.328-0.14-0.417c0.236-0.535,0.355-1.285,0.355-2.25V15.423c0-0.807-0.053-1.333-0.158-1.579
			c-0.158-0.368-0.777-0.552-1.859-0.552C295.543,13.283,295.53,13.217,295.521,13.094z M299.938,29.476
			c0,0.412,0.145,0.789,0.435,1.13s0.649,0.598,1.079,0.769c0.43,0.17,0.873,0.256,1.329,0.256c0.71,0,1.382-0.252,2.013-0.755
			c0.632-0.503,1.132-1.147,1.5-1.931c0.369-0.784,0.553-1.583,0.553-2.397c0-1.751-0.405-3.128-1.217-4.131
			c-0.812-1.002-1.901-1.504-3.27-1.504c-0.369,0-0.799,0.096-1.29,0.289s-0.815,0.368-0.974,0.525
			c-0.105,0.105-0.158,0.219-0.158,0.341V29.476z"/>
		<path fill="#FFFFFF" d="M311.855,26.383c0-0.668,0.089-1.323,0.266-1.964c0.176-0.642,0.418-1.224,0.725-1.747
			c0.309-0.523,0.666-1.011,1.072-1.464c0.407-0.452,0.84-0.83,1.296-1.134c0.457-0.303,0.93-0.54,1.419-0.712
			c0.488-0.171,0.963-0.257,1.424-0.257c0.508,0,0.982,0.056,1.423,0.167c0.44,0.111,0.817,0.26,1.129,0.446
			s0.591,0.404,0.835,0.653c0.245,0.249,0.445,0.501,0.602,0.759c0.156,0.257,0.285,0.524,0.387,0.799
			c0.104,0.275,0.174,0.526,0.215,0.753c0.039,0.227,0.06,0.433,0.06,0.619c0,0.464-0.054,0.812-0.159,1.044
			c-0.106,0.232-0.301,0.353-0.584,0.361c-0.416,0.025-1.744,0.067-3.986,0.125s-3.496,0.088-3.761,0.088v0.211
			c0,0.729,0.087,1.404,0.263,2.024c0.176,0.619,0.417,1.151,0.724,1.595c0.308,0.444,0.671,0.82,1.092,1.127
			s0.875,0.536,1.361,0.686c0.487,0.149,0.997,0.224,1.532,0.224c0.395,0,0.788-0.06,1.182-0.178
			c0.395-0.119,0.738-0.272,1.034-0.462c0.296-0.188,0.539-0.364,0.731-0.527c0.192-0.162,0.352-0.314,0.477-0.455
			c0.009,0,0.033,0.018,0.072,0.053c0.04,0.035,0.077,0.088,0.112,0.158s0.053,0.145,0.053,0.224c0,0.158-0.058,0.338-0.171,0.541
			c-0.169,0.264-0.378,0.527-0.627,0.791c-0.25,0.264-0.56,0.541-0.93,0.831c-0.369,0.29-0.814,0.527-1.336,0.712
			s-1.066,0.277-1.637,0.277c-1.221,0-2.312-0.279-3.275-0.837c-0.963-0.558-1.706-1.32-2.23-2.287S311.855,27.578,311.855,26.383z
			 M314.361,23.838h4.971c0.475,0,0.711-0.242,0.711-0.725c0-0.188-0.026-0.402-0.079-0.645c-0.053-0.241-0.143-0.499-0.27-0.772
			c-0.128-0.273-0.282-0.519-0.467-0.738s-0.423-0.403-0.717-0.55c-0.294-0.148-0.62-0.222-0.979-0.222
			c-0.343,0-0.667,0.067-0.975,0.202c-0.307,0.134-0.567,0.309-0.782,0.523s-0.407,0.452-0.579,0.711
			c-0.17,0.26-0.309,0.519-0.414,0.779c-0.105,0.259-0.193,0.497-0.263,0.711c-0.07,0.215-0.116,0.39-0.138,0.524
			C314.358,23.771,314.352,23.838,314.361,23.838z"/>
		<path fill="#FFFFFF" d="M324.394,20.266c0-0.053,0.113-0.208,0.341-0.468c0.227-0.259,0.379-0.429,0.458-0.508h1.126v-1.925
			c0.159-0.193,0.393-0.457,0.703-0.791c0.309-0.334,0.576-0.622,0.802-0.863s0.347-0.376,0.364-0.402
			c0.053-0.053,0.119-0.088,0.199-0.105c0.053-0.018,0.098-0.022,0.133-0.013c0.025,0.009,0.048,0.013,0.066,0.013
			c0.053,0.018,0.084,0.044,0.092,0.079v4.008h3.93c0.043,0,0.076,0.007,0.098,0.02c0.022,0.014,0.038,0.04,0.047,0.079
			c0.009,0.04,0.014,0.073,0.014,0.099s0,0.07,0,0.132c0,0.325-0.141,0.633-0.421,0.923h-3.667v8.016
			c0,0.817,0.169,1.439,0.506,1.866c0.338,0.426,0.84,0.639,1.506,0.639c0.279,0,0.573-0.053,0.88-0.158s0.538-0.202,0.696-0.29
			s0.293-0.171,0.407-0.25c0.062,0.026,0.093,0.097,0.093,0.211c0,0.053-0.01,0.114-0.027,0.185s-0.035,0.13-0.053,0.178
			c-0.018,0.049-0.03,0.082-0.039,0.099c-0.141,0.158-0.301,0.316-0.48,0.475c-0.182,0.158-0.41,0.336-0.686,0.534
			c-0.277,0.198-0.59,0.358-0.938,0.481c-0.347,0.123-0.695,0.185-1.047,0.185c-0.334,0-0.646-0.029-0.937-0.086
			s-0.575-0.162-0.856-0.316c-0.281-0.153-0.523-0.351-0.726-0.593s-0.362-0.561-0.481-0.956s-0.178-0.844-0.178-1.345v-8.873
			h-1.768c-0.044,0-0.081-0.033-0.111-0.099C324.408,20.378,324.394,20.318,324.394,20.266z"/>
		<path fill="#FFFFFF" d="M334.413,29.215c0-0.585,0.164-1.108,0.493-1.569c0.328-0.461,0.686-0.763,1.072-0.905
			c0.333-0.115,0.814-0.281,1.445-0.498c0.629-0.217,1.174-0.403,1.633-0.559c0.459-0.155,0.914-0.319,1.365-0.492
			s0.782-0.304,0.992-0.392c0.079-0.036,0.141-0.067,0.185-0.093s0.081-0.068,0.112-0.126c0.029-0.058,0.05-0.128,0.059-0.212
			c0.009-0.084,0.014-0.198,0.014-0.339v-0.838c0-0.461-0.114-0.917-0.342-1.37c-0.227-0.452-0.543-0.829-0.949-1.13
			s-0.851-0.452-1.33-0.452c-0.508,0-0.883,0.157-1.128,0.472s-0.424,0.791-0.538,1.429c-0.096,0.514-0.262,0.891-0.498,1.13
			c-0.235,0.239-0.545,0.359-0.93,0.359c-0.307,0-0.555-0.133-0.747-0.399c-0.192-0.266-0.288-0.567-0.288-0.904
			c0-0.042,0.008-0.109,0.025-0.2c0.018-0.09,0.045-0.187,0.08-0.29s0.07-0.176,0.105-0.219c0.264-0.24,0.586-0.491,0.969-0.753
			c0.382-0.262,0.821-0.526,1.318-0.792c0.496-0.266,1.035-0.485,1.615-0.657s1.133-0.258,1.66-0.258
			c0.889,0,1.666,0.402,2.334,1.207c0.668,0.805,1.002,1.778,1.002,2.919v6.356c0,0.966,0.314,1.449,0.943,1.449
			c0.087,0,0.174-0.009,0.262-0.026c0.087-0.018,0.161-0.038,0.223-0.06c0.061-0.022,0.124-0.051,0.189-0.086
			s0.115-0.066,0.15-0.093c0.035-0.027,0.072-0.053,0.111-0.08c0.039-0.027,0.059-0.044,0.059-0.054
			c0.088,0,0.133,0.084,0.133,0.252c0,0.211-0.053,0.405-0.158,0.582c-0.236,0.211-0.605,0.457-1.104,0.738
			s-0.894,0.422-1.183,0.422c-0.43,0-0.827-0.207-1.193-0.621c-0.367-0.414-0.6-0.872-0.697-1.374
			c-0.299,0.299-0.884,0.718-1.756,1.254c-0.873,0.537-1.541,0.806-2.006,0.806c-1.048,0-1.926-0.34-2.637-1.02
			S334.413,30.212,334.413,29.215z M337.076,28.935c0,0.373,0.09,0.725,0.27,1.058c0.18,0.332,0.428,0.598,0.742,0.797
			c0.316,0.2,0.662,0.299,1.039,0.299c0.254,0,0.541-0.051,0.861-0.153s0.609-0.222,0.867-0.359
			c0.259-0.138,0.479-0.277,0.658-0.419s0.27-0.252,0.27-0.333v-4.188c-1.578,0.47-2.525,0.767-2.84,0.891
			c-0.579,0.222-1.035,0.536-1.367,0.944C337.242,27.88,337.076,28.368,337.076,28.935z"/>
	</g>
</g>
<g>
</g>
<g>
</g>
<g>
</g>
<g>
</g>
<g>
</g>
<g>
</g>
<g>
</g>
<g>
</g>
<g>
</g>
<g>
</g>
<g>
</g>
<g>
</g>
<g>
</g>
<g>
</g>
<g>
</g>
</svg>
