<svg version="1" xmlns="http://www.w3.org/2000/svg" xmlns:xlink="http://www.w3.org/1999/xlink" x="0px"
	 y="0px" width="24px" height="24px" viewBox="0 0 24 24" enable-background="new 0 0 24 24" xml:space="preserve">
<path fill="#6c757d" d="M17,12l7-7c0-0,0-0,0-0c0-0-0-0-0-0L19,0
	C19,0,19,0,19,0h-0c-0,0-0,0-0,0l-7,7L5,0
	C5,0,5-0,5-0H5c-0,0-0,0-0,0L0,5c-0,0-0,1-0,1
	l7,7l-7,7c-0,0-0,1-0,1l4,5c0,0,0,0,0,0h0
	c0,0,0-0,0-0l7-7l7,7C19,24,19,24,19,24s0-0,0-0l5-4
	c0-0,0-1,0-1L17,12z"/>
</svg>
